<?xml version="1.0" standalone="no"?>
<!DOCTYPE svg PUBLIC "-//W3C//DTD SVG 20010904//EN"
 "http://www.w3.org/TR/2001/REC-SVG-20010904/DTD/svg10.dtd">
<svg version="1.0" xmlns="http://www.w3.org/2000/svg"
 width="700.000000pt" height="440.000000pt" viewBox="0 0 700.000000 440.000000"
 preserveAspectRatio="xMidYMid meet">

<g transform="translate(0.000000,440.000000) scale(0.100000,-0.100000)"
fill="#000000" stroke="none">
<path d="M2016 2469 c-88 -11 -161 -21 -164 -23 -2 -3 1 -28 8 -58 11 -49 10
-58 -16 -123 -22 -58 -28 -91 -32 -188 -4 -103 -2 -120 13 -137 17 -19 33 -20
384 -20 383 0 477 7 540 40 45 22 51 35 51 101 0 64 -19 82 -112 109 -203 59
-234 71 -270 102 -52 46 -126 136 -149 181 -23 44 -17 44 -253 16z m229 -49
c15 -29 15 -30 -12 -36 -49 -10 -55 -14 -51 -31 4 -19 30 -22 84 -9 45 10 55
-19 17 -50 -23 -18 -26 -25 -15 -35 10 -11 19 -10 48 6 32 17 36 17 51 3 14
-15 14 -19 -7 -48 -21 -30 -22 -33 -6 -48 16 -16 18 -16 32 3 9 11 19 26 23
33 6 10 13 11 33 2 23 -11 24 -15 15 -41 -9 -22 -8 -32 2 -41 10 -11 16 -9 31
10 10 12 20 27 22 32 2 7 14 7 35 -1 l33 -11 -53 -59 -52 -59 -310 2 -310 3
-3 59 c-2 45 4 79 28 151 27 77 30 98 22 127 l-10 35 132 15 c201 23 203 23
221 -12z"/>
<path d="M1961 2301 c-26 -24 -31 -37 -31 -73 1 -46 10 -64 50 -91 49 -34 122
-10 146 50 44 104 -82 191 -165 114z"/>
<path d="M4940 2230 l0 -170 30 0 c27 0 30 3 30 33 0 21 8 41 19 51 19 17 21
16 57 -33 33 -43 43 -51 71 -51 39 0 38 4 -25 85 l-39 50 45 52 44 53 -33 0
c-28 0 -41 -8 -77 -50 -24 -28 -47 -50 -53 -50 -5 0 -9 44 -9 100 l0 100 -30
0 -30 0 0 -170z"/>
<path d="M3019 2353 c-26 -67 -99 -278 -99 -286 0 -4 14 -7 32 -5 25 2 33 9
39 32 10 37 24 46 76 46 58 0 70 -7 83 -46 10 -28 16 -34 41 -34 17 0 29 5 28
13 0 6 -23 77 -52 157 l-52 145 -43 3 c-38 3 -43 1 -53 -25z m58 -161 c-22 -2
-41 -1 -44 1 -5 5 12 72 29 116 9 24 11 22 32 -44 l22 -70 -39 -3z"/>
<path d="M3301 2275 c-36 -31 -49 -94 -31 -150 17 -51 46 -67 117 -63 55 3 58
4 61 30 3 27 2 27 -28 16 -60 -20 -109 28 -95 94 9 40 44 61 88 53 29 -6 35
-4 40 14 6 24 -9 31 -73 31 -37 0 -55 -6 -79 -25z"/>
<path d="M3551 2291 c-29 -18 -5 -36 49 -36 39 0 55 -4 64 -18 15 -23 -6 -37
-57 -37 -39 0 -76 -14 -89 -34 -14 -21 -8 -73 10 -89 24 -22 91 -22 121 -1 22
16 24 16 33 0 5 -9 18 -16 28 -16 19 0 20 7 20 98 0 103 -3 113 -37 131 -25
13 -122 15 -142 2z m119 -139 c0 -46 -80 -71 -88 -28 -5 25 23 46 60 46 21 0
28 -5 28 -18z"/>
<path d="M3820 2280 c-40 -40 -20 -84 51 -114 83 -34 75 -71 -13 -63 -56 5
-59 4 -56 -16 3 -19 10 -22 57 -25 72 -4 97 3 117 33 27 42 12 72 -54 103 -74
36 -76 57 -5 56 38 -1 53 2 58 14 9 23 -13 32 -77 32 -45 0 -63 -5 -78 -20z"/>
<path d="M4050 2180 l0 -120 29 0 29 0 4 80 c3 66 7 83 25 102 19 18 27 20 50
12 28 -9 28 -11 31 -102 l3 -92 29 0 30 0 0 100 c0 87 -3 103 -20 120 -25 25
-95 27 -128 4 -20 -14 -23 -14 -28 0 -3 9 -17 16 -30 16 -24 0 -24 0 -24 -120z"/>
<path d="M4391 2275 c-55 -47 -52 -149 7 -195 18 -15 40 -20 83 -20 70 0 89 7
89 30 0 16 -7 17 -57 13 -50 -5 -61 -2 -77 16 -34 37 -15 51 69 51 l75 0 0 36
c0 26 -8 43 -29 65 -40 40 -115 42 -160 4z m117 -27 c26 -26 13 -38 -38 -38
-52 0 -60 8 -34 34 18 19 55 21 72 4z"/>
<path d="M4681 2291 c-29 -18 -5 -36 49 -36 39 0 55 -4 64 -18 15 -23 -6 -37
-57 -37 -21 0 -51 -7 -67 -15 -26 -13 -30 -21 -30 -55 0 -22 7 -45 16 -54 20
-20 94 -21 120 -1 25 19 34 19 34 0 0 -9 9 -15 25 -15 25 0 25 0 25 95 0 88
-2 98 -25 120 -20 21 -34 25 -82 25 -32 0 -64 -4 -72 -9z m112 -128 c10 -17
-14 -53 -38 -59 -24 -6 -55 9 -55 27 0 28 80 55 93 32z"/>
<path d="M3154 1846 c-9 -24 0 -79 14 -82 7 -1 8 0 2 3 -14 7 -12 80 3 86 9 4
9 6 -1 6 -7 1 -15 -5 -18 -13z"/>
<path d="M3221 1838 c9 -22 9 -34 0 -55 -10 -26 -10 -27 4 -9 8 11 15 27 15
36 0 9 -7 25 -15 36 -14 18 -14 17 -4 -8z"/>
<path d="M3480 1810 c0 -29 3 -51 6 -47 8 7 7 87 0 95 -3 3 -6 -19 -6 -48z"/>
<path d="M3558 1832 c-2 -15 -1 -38 3 -52 5 -18 7 -10 8 28 1 56 -4 69 -11 24z"/>
<path d="M3430 1835 c0 -8 -6 -15 -12 -15 -9 0 -8 -4 2 -10 12 -8 13 -13 3
-29 -11 -17 -10 -19 2 -15 10 4 15 20 15 45 0 21 -2 39 -5 39 -3 0 -5 -7 -5
-15z"/>
<path d="M3363 1794 c-3 -8 0 -21 6 -27 9 -9 11 -8 5 7 -4 11 -2 21 7 27 10 6
11 9 1 9 -7 0 -15 -7 -19 -16z"/>
</g>
</svg>
